# xmcd CD database file
#
# Track frame offsets:
#	150
#	42525
#	80925
#	107850
#	141450
#	167925
#	205425
#	238885
#	267525
#
# Disc length: 3817 seconds
#
# Revision: 2
# Processed by: cddbd v1.5.2PL0 Copyright (c) Steve Scherf et al.
# Submitted via: CDex 1.50
#
DISCID=970ee709
DTITLE=Barney Wilen - New york romance
DYEAR=1994
DGENRE=Jazz
TTITLE0=No Problem '94
TTITLE1=Cry Me A River
TTITLE2=Blues Walk
TTITLE3=You've Changed
TTITLE4=You'd Be So Nice To Come Home To
TTITLE5=Mack The Knife
TTITLE6=Don't Fence Me In
TTITLE7=Old Devil Moon
TTITLE8=I Will Say Goodbye
EXTD=YEAR: 1994
EXTT0=
EXTT1=
EXTT2=
EXTT3=
EXTT4=
EXTT5=
EXTT6=
EXTT7=
EXTT8=
PLAYORDER=
